<?xml version="1.0" encoding="UTF-8" standalone="no"?>
<!DOCTYPE svg PUBLIC "-//W3C//DTD SVG 1.1//EN" "http://www.w3.org/Graphics/SVG/1.1/DTD/svg11.dtd">
<svg width="100%" height="100%" viewBox="0 0 924 347" version="1.1" xmlns="http://www.w3.org/2000/svg" xmlns:xlink="http://www.w3.org/1999/xlink" xml:space="preserve" xmlns:serif="http://www.serif.com/" style="fill-rule:evenodd;clip-rule:evenodd;stroke-linejoin:round;stroke-miterlimit:2;">
    <g transform="matrix(1,0,0,1,-214.561,-292.855)">
        <path d="M359.372,508.64C370.836,513.714 393.524,527.65 393.779,558.55C394.028,588.655 393.046,604.512 376.366,620.649C365.854,630.818 346.461,638.964 316.255,638.88C300.881,638.836 286.936,636.559 274.429,631.869C262.072,627.235 251.446,620.618 242.564,611.994C233.695,603.381 226.831,592.896 221.947,580.556C217.005,568.073 214.561,554.025 214.561,538.422C214.561,523.084 217.007,509.172 221.947,496.694C226.831,484.354 233.695,473.869 242.564,465.257C251.446,456.633 262.072,450.016 274.429,445.382C286.932,440.693 300.872,438.371 316.241,438.371C331.594,438.371 345.519,440.755 358.01,445.569C366.147,448.705 376.412,454.599 383.823,459.908C381.016,465.503 377.628,471.114 372.111,477.195C366.137,483.779 356.926,486.896 345.877,485.622C333.933,484.245 327.865,482.525 316.241,482.525C303.069,482.525 292.906,487.678 285.693,497.87C278.963,507.38 275.409,520.865 275.409,538.422C275.409,556.276 279.048,569.909 285.926,579.422C293.28,589.592 303.505,594.725 316.648,594.725C329.771,594.725 342.326,591.412 349.356,581.101C355.898,571.507 358.676,561.123 359.077,539.295C359.366,523.6 359.411,514.218 359.372,508.64Z" style="fill:rgb(78,0,38);"/>
        <path d="M810.52,509.437C821.983,514.511 844.671,528.448 844.927,559.347C845.175,589.453 844.194,605.309 827.514,621.446C817.002,631.615 797.608,639.762 767.402,639.677C752.029,639.634 738.084,637.356 725.576,632.666C713.22,628.032 702.593,621.415 693.712,612.791C684.843,604.179 677.979,593.694 673.094,581.354C668.153,568.871 665.709,554.823 665.709,539.219C665.709,523.882 668.155,509.97 673.094,497.492C677.979,485.152 684.843,474.667 693.712,466.054C702.593,457.43 713.22,450.813 725.576,446.179C738.08,441.49 752.02,439.168 767.388,439.168C782.741,439.168 796.667,441.553 809.158,446.367C817.294,449.503 827.56,455.396 834.971,460.705C832.164,466.3 828.776,471.911 823.259,477.992C817.285,484.576 808.074,487.694 797.025,486.42C785.081,485.042 779.013,483.322 767.388,483.322C754.217,483.322 744.053,488.475 736.841,498.667C730.111,508.177 726.557,521.663 726.557,539.219C726.557,557.074 730.195,570.707 737.074,580.219C744.428,590.39 754.652,595.523 767.795,595.523C780.919,595.523 793.473,592.21 800.504,581.899C807.046,572.304 809.823,561.92 810.225,540.092C810.513,524.397 810.558,515.016 810.52,509.437Z" style="fill:rgb(78,0,38);"/>
        <path d="M481.682,633.836C479.406,634.304 476.567,634.771 473.166,635.246C467.552,636.029 461.743,636.42 455.737,636.42C450.079,636.42 444.999,636.041 440.499,635.27C436.608,634.603 433.31,633.313 430.642,631.312C428.068,629.381 426.115,626.728 424.721,623.403C423.164,619.692 422.463,614.831 422.463,608.846L422.463,486.694C422.463,481.344 423.392,476.738 425.369,472.9C427.373,469.009 430.28,465.545 434.053,462.479C438.093,459.197 443.089,456.246 449.023,453.595C455.21,450.831 461.858,448.398 468.966,446.292C476.085,444.182 483.467,442.535 491.114,441.349C498.73,440.167 506.347,439.576 513.963,439.576C525.817,439.576 535.237,441.711 542.152,446.28C548.429,450.427 551.309,457.327 551.309,466.742C551.309,470.06 550.834,473.319 549.886,476.519C549.209,478.805 548.417,480.947 547.507,482.941C542.649,483.022 537.695,483.291 532.648,483.75C526.511,484.308 520.514,485.145 514.656,486.261C508.868,487.363 503.425,488.535 498.327,489.775C492.946,491.084 488.369,492.624 484.587,494.369L481.682,495.71L481.682,633.836Z" style="fill:rgb(78,0,38);fill-rule:nonzero;"/>
        <path d="M637.498,632.09C636.455,631.888 635.318,631.638 634.187,631.336C623.132,628.386 604.58,620.618 593.477,603.047C582.535,585.73 578.174,564.241 577.804,539.412C577.804,539.397 578.258,447.328 578.258,447.328C580.746,446.902 583.765,446.4 587.315,445.822C592.886,444.915 598.522,444.462 604.223,444.462C609.881,444.462 614.961,444.84 619.462,445.611C623.353,446.278 626.65,447.568 629.318,449.569C631.893,451.5 633.845,454.153 635.24,457.479C636.796,461.19 637.498,466.05 637.498,472.036L637.498,632.09Z" style="fill:rgb(78,0,38);"/>
        <path d="M1080.69,632.09C1079.65,631.888 1078.51,631.638 1077.38,631.336C1066.32,628.386 1047.77,620.618 1036.67,603.047C1025.73,585.73 1021.37,564.241 1021,539.412C1021,539.397 1021.45,447.328 1021.45,447.328C1023.94,446.902 1026.96,446.4 1030.51,445.822C1036.08,444.915 1041.71,444.462 1047.41,444.462C1053.07,444.462 1058.15,444.84 1062.65,445.611C1066.54,446.278 1069.84,447.568 1072.51,449.569C1075.08,451.5 1077.04,454.153 1078.43,457.479C1079.99,461.19 1080.69,466.05 1080.69,472.036L1080.69,632.09Z" style="fill:rgb(78,0,38);"/>
        <path d="M928.312,633.836C926.036,634.304 923.196,634.771 919.795,635.246C914.182,636.029 908.372,636.42 902.367,636.42C896.709,636.42 891.629,636.041 887.129,635.27C883.238,634.603 879.94,633.313 877.272,631.312C874.697,629.381 872.745,626.728 871.35,623.403C869.794,619.692 869.093,614.831 869.093,608.846L869.093,486.694C869.093,481.344 870.022,476.738 871.999,472.9C874.003,469.009 876.909,465.545 880.683,462.479C884.722,459.197 889.719,456.246 895.653,453.595C901.839,450.831 908.487,448.398 915.596,446.292C922.715,444.182 930.097,442.535 937.744,441.349C945.36,440.167 952.976,439.576 960.593,439.576C972.447,439.576 981.867,441.711 988.782,446.28C995.059,450.427 997.939,457.327 997.939,466.742C997.939,470.06 997.464,473.319 996.516,476.519C995.839,478.805 995.047,480.947 994.137,482.941C989.278,483.022 984.325,483.291 979.277,483.75C973.141,484.308 967.144,485.145 961.286,486.261C955.498,487.363 950.055,488.535 944.956,489.775C939.575,491.084 934.998,492.624 931.217,494.369L928.312,495.71L928.312,633.836Z" style="fill:rgb(78,0,38);fill-rule:nonzero;"/>
        <g transform="matrix(0.703503,0.710692,-0.710692,0.703503,40.5197,-720.377)">
            <path d="M1179.77,427.067C1176.93,425.844 1160.58,418.525 1142.35,405.062C1105.71,378.013 1111.1,337.853 1111.1,337.853C1123.6,339.142 1134.86,341.566 1147.46,348.662C1151.28,328.767 1158.23,309.816 1175.2,293.871C1191.37,310.446 1200.97,329.043 1207.25,348.662C1212.72,346.128 1223.21,340.469 1245.99,339.68C1245.99,339.68 1252.97,370.837 1214.62,405.104C1196.82,421.009 1183.61,426.096 1180.77,427.067C1181.46,433.036 1181.35,438.269 1174.58,453.275C1174.06,455.225 1165.4,454.388 1167.73,450.623C1176.21,444.129 1179.06,435.924 1179.77,427.067Z" style="fill:rgb(255,179,126);"/>
        </g>
        <g transform="matrix(0.990355,-0.13855,0.13855,0.990355,391.715,96.4125)">
            <path d="M578.17,366.951C572.592,364.42 567.517,360.647 563.926,355.708C561.658,352.589 557.488,344.627 557.499,335.567C559.886,334.278 563.289,333.188 565.783,332.537C564.499,330.302 562.909,326.796 562.154,324.19C567.299,318.537 573.877,316.572 580.537,316.087C594.156,315.095 608.691,321.683 615.954,331.065C614.495,319.617 618.64,305.236 628.376,296.951C631.312,294.452 638.933,289.686 647.967,289.006C649.435,291.288 650.781,294.597 651.621,297.034C653.752,295.583 657.125,293.73 659.666,292.779C665.695,297.477 668.157,303.885 669.149,310.489C670.566,319.918 668.332,330.073 663.859,338.053C672.876,337.126 682.807,339.017 690.287,344.516C693.394,346.8 699.782,353.122 702.519,361.759C700.636,363.712 697.724,365.782 695.545,367.159C697.446,368.9 700.025,371.757 701.534,374.012C698.346,380.959 692.675,384.827 686.475,387.309C681.43,389.329 675.882,390.249 670.415,390.2C672.375,395.372 673.299,400.957 672.693,406.43C672.268,410.262 669.987,418.956 663.876,425.645C661.243,424.99 657.994,423.503 655.712,422.305C655.156,424.822 653.97,428.484 652.772,430.918C645.162,431.631 638.977,428.653 633.727,424.525C625.971,418.426 620.527,409.081 618.463,399.904C612.745,407.575 603.891,413.936 594.108,415.43C590.296,416.011 581.308,416.058 573.266,411.886C573.217,409.174 573.812,405.651 574.379,403.136C571.804,403.25 567.96,403.053 565.298,402.526C562.64,395.359 563.916,388.614 566.544,382.475C569.094,376.519 573.255,371.164 578.17,366.951ZM645.195,357.44C643.427,357.44 641.992,358.875 641.992,360.643C641.992,362.411 643.427,363.846 645.195,363.846C646.963,363.846 648.399,362.411 648.399,360.643C648.399,358.875 646.963,357.44 645.195,357.44ZM630.873,343.365C629.105,343.365 627.67,344.8 627.67,346.568C627.67,348.336 629.105,349.772 630.873,349.772C632.641,349.772 634.077,348.336 634.077,346.568C634.077,344.8 632.641,343.365 630.873,343.365ZM634.077,374.043C632.309,374.043 630.873,375.478 630.873,377.246C630.873,379.014 632.309,380.45 634.077,380.45C635.845,380.45 637.28,379.014 637.28,377.246C637.28,375.478 635.845,374.043 634.077,374.043ZM612.466,351.033C610.698,351.033 609.262,352.468 609.262,354.236C609.262,356.004 610.698,357.44 612.466,357.44C614.234,357.44 615.669,356.004 615.669,354.236C615.669,352.468 614.234,351.033 612.466,351.033ZM615.669,371.156C613.901,371.156 612.466,372.592 612.466,374.36C612.466,376.128 613.901,377.563 615.669,377.563C617.437,377.563 618.872,376.128 618.872,374.36C618.872,372.592 617.437,371.156 615.669,371.156Z" style="fill:rgb(255,201,237);"/>
        </g>
    </g>
</svg>
